<?xml version="1.0" encoding="utf-8"?>
<!-- Generator: Adobe Illustrator 20.0.0, SVG Export Plug-In . SVG Version: 6.00 Build 0)  -->
<svg version="1.1" id="Layer_1" xmlns="http://www.w3.org/2000/svg" xmlns:xlink="http://www.w3.org/1999/xlink" x="0px" y="0px"
	 viewBox="0 0 400.6 95.5" style="enable-background:new 0 0 400.6 95.5;" xml:space="preserve">
<style type="text/css">
	.st0{fill:#ED1C24;}
	.st1{enable-background:new    ;}
	.st2{fill:#010101;}
</style>
<g id="Grid_Template">
</g>
<g id="content">
	<g id="BOOTSTRAP__Grid_options">
	</g>
	<g>
		<path class="st0" d="M94.9,66.9l-19.3-20c-1.9-2-5.1-2.1-7.1-0.1c-2,1.9-2.1,5.1-0.1,7.1l11.1,11.5H25.6C17,65.3,10,58,10,48.9
			s7-16.4,15.6-16.4h1c2.8,0,5-2.2,5-5v-1c0-9.1,7-16.4,15.6-16.4c5.9,0,11.2,3.5,13.9,9c0.6,1.2,1.6,2.2,2.9,2.6s2.7,0.3,3.9-0.3
			c1.7-0.9,3.6-1.3,5.4-1.3c6.9,0,12.4,5.9,12.4,13.2V34c0,2.8,2.2,5,5,5s5-2.2,5-5v-0.8C95.8,20.4,85.8,10,73.4,10
			c-1.9,0-3.8,0.2-5.6,0.7C63,4,55.4,0,47.2,0C34.3,0,23.6,9.9,21.8,22.7C9.5,24.6,0,35.7,0,48.9c0,14.6,11.5,26.5,25.6,26.5h53.9
			L68.4,87c-1.9,2-1.9,5.2,0.1,7.1c1,0.9,2.2,1.4,3.5,1.4s2.6-0.5,3.6-1.5l19.3-20.1C96.8,71.9,96.8,68.9,94.9,66.9z"/>
		<g class="st1">
			<path class="st2" d="M147.5,38.3h5.5v39h-5.5v-18h-19.1v18H123v-39h5.5v16.3h19.1V38.3z"/>
			<path class="st2" d="M161.7,62.7c0-2.6,0.4-4.9,1.1-6.8c0.8-1.9,1.7-3.5,3-4.8c1.2-1.3,2.7-2.2,4.3-2.9c1.6-0.6,3.3-1,5-1
				c3.9,0,7,1.2,9.1,3.7c2.1,2.5,3.2,6.2,3.2,11.2c0,0.2,0,0.5,0,0.9c0,0.4,0,0.7-0.1,1h-20c0.2,3,1.1,5.3,2.6,6.9
				c1.5,1.6,3.9,2.4,7.2,2.4c1.8,0,3.4-0.2,4.6-0.5c1.3-0.3,2.2-0.6,2.8-0.9l0.7,4.4c-0.6,0.3-1.8,0.7-3.4,1.1
				c-1.6,0.4-3.4,0.6-5.4,0.6c-2.6,0-4.8-0.4-6.6-1.2s-3.4-1.8-4.6-3.2c-1.2-1.4-2.1-3-2.7-4.8C162,66.9,161.7,64.9,161.7,62.7z
				 M181.8,59.8c0-2.4-0.6-4.3-1.8-5.8c-1.2-1.5-2.9-2.3-5-2.3c-1.2,0-2.3,0.2-3.2,0.7c-0.9,0.5-1.7,1.1-2.3,1.8
				c-0.6,0.8-1.1,1.6-1.5,2.6c-0.4,1-0.6,2-0.7,3H181.8z"/>
			<path class="st2" d="M213.2,77.3c-0.4-0.8-0.9-1.7-1.5-2.8c-0.6-1-1.3-2.1-2-3.1c-0.7-1.1-1.4-2.1-2.2-3.2c-0.8-1.1-1.5-2-2.2-3
				c-0.7,0.9-1.4,1.9-2.2,3c-0.8,1.1-1.5,2.1-2.2,3.2c-0.7,1.1-1.3,2.1-1.9,3.1c-0.6,1-1.1,1.9-1.5,2.7h-5.4
				c1.3-2.6,2.9-5.2,4.7-7.8c1.8-2.6,3.6-5.2,5.4-7.6L192.6,48h5.9l7,10.2l7-10.2h5.6l-9.5,13.6c1.8,2.4,3.7,5,5.5,7.7
				c1.9,2.7,3.5,5.4,4.8,8H213.2z"/>
			<path class="st2" d="M228,42.7c-0.9,0-1.7-0.3-2.4-0.9c-0.7-0.6-1-1.5-1-2.5c0-1,0.3-1.9,1-2.5c0.7-0.6,1.5-0.9,2.4-0.9
				c0.9,0,1.7,0.3,2.4,0.9c0.7,0.6,1,1.5,1,2.5c0,1.1-0.3,1.9-1,2.5C229.8,42.4,229,42.7,228,42.7z M230.7,77.3h-5.2V48h5.2V77.3z"
				/>
		</g>
		<g class="st1">
			<path class="st2" d="M260.2,78.1c-6.3,0-11.2-1.8-14.5-5.3c-3.3-3.5-5-8.5-5-15c0-3.2,0.5-6.1,1.5-8.6c1-2.5,2.4-4.7,4.2-6.4
				c1.8-1.7,3.9-3.1,6.3-4c2.4-0.9,5.1-1.4,7.9-1.4c1.7,0,3.2,0.1,4.5,0.4s2.5,0.5,3.5,0.8c1,0.3,1.9,0.6,2.5,1
				c0.7,0.3,1.2,0.6,1.5,0.8l-2.5,7.1c-1.2-0.6-2.6-1.2-4.2-1.6c-1.6-0.5-3.4-0.7-5.4-0.7c-1.4,0-2.7,0.2-4,0.7s-2.4,1.2-3.4,2.2
				c-1,1-1.8,2.3-2.4,3.9s-0.9,3.5-0.9,5.7c0,1.8,0.2,3.5,0.6,5c0.4,1.6,1,2.9,1.9,4c0.9,1.1,2,2,3.5,2.7c1.4,0.7,3.2,1,5.2,1
				c1.3,0,2.4-0.1,3.4-0.2c1-0.1,1.9-0.3,2.7-0.5c0.8-0.2,1.5-0.4,2.1-0.7s1.1-0.5,1.6-0.7l2.4,7c-1.2,0.8-3,1.4-5.2,2
				C265.8,77.8,263.2,78.1,260.2,78.1z"/>
			<path class="st2" d="M291.2,77.8c-2.4,0-4.4-0.3-5.9-0.8s-2.7-1.2-3.6-2.1c-0.9-0.9-1.5-2-1.8-3.2c-0.3-1.3-0.5-2.7-0.5-4.3V34.9
				l8.4-1.4v32.3c0,0.8,0.1,1.4,0.2,2c0.1,0.6,0.3,1.1,0.6,1.5c0.3,0.4,0.8,0.8,1.4,1c0.6,0.3,1.4,0.4,2.4,0.5L291.2,77.8z"/>
			<path class="st2" d="M325.8,62.4c0,2.3-0.3,4.5-1,6.4c-0.7,1.9-1.7,3.6-2.9,5c-1.3,1.4-2.8,2.4-4.6,3.2c-1.8,0.8-3.8,1.1-6,1.1
				c-2.2,0-4.2-0.4-5.9-1.1c-1.8-0.8-3.3-1.8-4.6-3.2s-2.3-3-3-5c-0.7-1.9-1.1-4.1-1.1-6.4c0-2.3,0.4-4.4,1.1-6.4
				c0.7-1.9,1.7-3.5,3-4.9c1.3-1.4,2.8-2.4,4.6-3.2s3.7-1.1,5.8-1.1c2.1,0,4.1,0.4,5.9,1.1c1.8,0.8,3.3,1.8,4.6,3.2
				c1.3,1.4,2.3,3,3,4.9S325.8,60.1,325.8,62.4z M317.2,62.4c0-2.6-0.5-4.6-1.5-6.1c-1-1.5-2.5-2.2-4.4-2.2c-1.9,0-3.4,0.7-4.4,2.2
				c-1.1,1.5-1.6,3.5-1.6,6.1s0.5,4.6,1.6,6.2c1.1,1.5,2.5,2.3,4.4,2.3c1.9,0,3.4-0.8,4.4-2.3C316.7,67.1,317.2,65,317.2,62.4z"/>
			<path class="st2" d="M358.5,76.3c-1.4,0.4-3.3,0.8-5.5,1.2s-4.6,0.5-7.1,0.5c-2.5,0-4.6-0.3-6.3-1c-1.7-0.7-3-1.6-4-2.8
				c-1-1.2-1.7-2.7-2.1-4.4c-0.4-1.7-0.6-3.5-0.6-5.6V47.7h8.4v15.5c0,2.7,0.4,4.7,1.1,5.9c0.7,1.2,2,1.8,4,1.8c0.6,0,1.2,0,1.9-0.1
				c0.7-0.1,1.3-0.1,1.8-0.2V47.7h8.4V76.3z"/>
			<path class="st2" d="M393.5,76.3c-0.8,0.2-1.6,0.4-2.6,0.6c-1,0.2-2,0.4-3.1,0.5c-1.1,0.1-2.2,0.3-3.3,0.4
				c-1.1,0.1-2.2,0.1-3.2,0.1c-2.4,0-4.6-0.4-6.5-1.1s-3.5-1.7-4.8-3.1c-1.3-1.3-2.3-2.9-3-4.8s-1-4-1-6.4c0-2.4,0.3-4.6,0.9-6.5
				c0.6-1.9,1.5-3.6,2.6-4.9s2.5-2.4,4.1-3.1c1.6-0.7,3.5-1.1,5.6-1.1c1.2,0,2.2,0.1,3.1,0.3c0.9,0.2,1.8,0.5,2.8,1V34.9l8.4-1.4
				V76.3z M374.5,62.2c0,2.6,0.6,4.7,1.7,6.2s2.9,2.4,5.2,2.4c0.8,0,1.4,0,2.1-0.1c0.6-0.1,1.2-0.1,1.6-0.2V55.3
				c-0.5-0.3-1.2-0.6-2.1-0.8s-1.7-0.3-2.6-0.3C376.5,54.1,374.5,56.8,374.5,62.2z"/>
		</g>
	</g>
</g>
</svg>
