<?xml version="1.0" encoding="utf-8"?>
<!-- Generator: Adobe Illustrator 20.0.0, SVG Export Plug-In . SVG Version: 6.00 Build 0)  -->
<svg version="1.1" xmlns="http://www.w3.org/2000/svg" xmlns:xlink="http://www.w3.org/1999/xlink" x="0px" y="0px"
	 viewBox="0 0 30 30" style="enable-background:new 0 0 30 30;" xml:space="preserve">
<style type="text/css">
	.st0{fill:#FFFFFF;}
	.st1{fill:#F1F2F2;}
	.st2{fill:#FFFFFF;stroke:#E6E7E8;stroke-miterlimit:10;}
	.st3{fill:#31353D;}
	.st4{fill:#939495;}
	.st5{fill:#ED1C24;}
	.st6{fill:#FFFFFF;stroke:#FFFFFF;stroke-width:0.75;stroke-miterlimit:10;}
	.st7{fill:#E6E7E8;}
	.st8{fill:#BCBEC0;}
	.st9{fill:none;stroke:#808285;stroke-miterlimit:10;}
	.st10{fill:#8A93B2;}
	.st11{fill:#8DC63F;}
	.st12{fill:#808285;}
	.st13{fill:#EC9D22;}
	.st14{fill:#010101;}
	.st15{clip-path:url(#SVGID_12_);}
	.st16{fill:#231F20;}
	.st17{fill:#FFFFFF;stroke:#ED1C24;stroke-width:0.6667;stroke-miterlimit:10;}
	.st18{fill:none;stroke:#D6D6D6;stroke-width:0.7379;stroke-miterlimit:10;}
	.st19{fill:#989897;}
	.st20{fill:#B1B0B1;}
	.st21{fill:none;}
	.st22{fill:none;stroke:#ED1C24;stroke-width:1.4757;stroke-miterlimit:10;}
	.st23{fill:#ED1C24;stroke:#F2F2F2;stroke-width:0.7379;stroke-miterlimit:10;}
	.st24{fill:#FFFFFF;stroke:#ED1C24;stroke-width:0.7379;stroke-miterlimit:10;}
	.st25{fill:#4D4D4D;}
	.st26{fill:#D1D3D4;}
	.st27{fill:none;stroke:#E6E7E8;stroke-width:0.75;stroke-miterlimit:10;}
	.st28{fill:#CCCCCC;}
	.st29{fill:#445878;}
	.st30{fill:#7DC242;}
	.st31{fill:#FFFFFF;stroke:#ED1C24;stroke-width:0.85;stroke-miterlimit:10;}
	.st32{fill:#F6F7F7;}
	.st33{fill:#939598;}
	.st34{fill:#E0E1E2;}
	.st35{fill:none;stroke:#F1F2F2;stroke-miterlimit:10;}
	.st36{fill:#F1F5FB;}
	.st37{fill:none;stroke:#F1F2F2;stroke-width:1.2314;stroke-miterlimit:10;}
	.st38{fill:#ED1C24;stroke:#ED1C24;stroke-width:0.25;stroke-miterlimit:10;}
	.st39{fill:#FFFFFF;stroke:#ED1C24;stroke-width:1.25;stroke-miterlimit:10;}
	.st40{fill:none;stroke:#ED1C24;stroke-width:0.8362;stroke-miterlimit:10;}
	.st41{fill:none;stroke:#ED1C24;stroke-miterlimit:10;}
	.st42{fill:#FFFFFF;stroke:#ED1C24;stroke-miterlimit:10;}
	.st43{fill:none;stroke:#ED1C24;stroke-width:0.6358;stroke-miterlimit:10;}
	.st44{fill:#58595B;}
	.st45{fill:none;stroke:#F1F2F2;stroke-width:1.1691;stroke-miterlimit:10;}
	.st46{fill:none;stroke:#F1F2F2;stroke-width:0.8231;stroke-miterlimit:10;}
	.st47{fill:none;stroke:#E6E7E8;stroke-miterlimit:10;}
	.st48{fill:#FFFFFF;stroke:#E6E7E8;stroke-width:0.9999;stroke-miterlimit:10;}
	.st49{fill:none;stroke:#E6E7E8;stroke-width:0.9999;stroke-miterlimit:10;}
	.st50{fill:none;stroke:#E6E7E8;stroke-width:0.9975;stroke-miterlimit:10;}
	.st51{fill:#E6E6E6;}
	.st52{fill:#FFFFFF;stroke:#E6E7E8;stroke-width:1.1252;stroke-miterlimit:10;}
	.st53{fill:#A7A9AC;}
</style>
<g id="Grid_Template">
</g>
<g id="content">
	<rect x="3" y="10.7" class="st0" width="23.3" height="7.8"/>
	<g id="BOOTSTRAP__Grid_options">
	</g>
	<g>
		<path class="st5" d="M15,0C6.7,0,0,6.8,0,15s6.7,15,15,15s15-6.7,15-15S23.3,0,15,0L15,0z M7.7,17.3c-1.3,0-2.3-1-2.3-2.3
			c0-1.3,1-2.3,2.3-2.3s2.3,1,2.3,2.3C10,16.3,9,17.3,7.7,17.3L7.7,17.3z M15,17.3c-1.3,0-2.3-1-2.3-2.3c0-1.3,1-2.3,2.3-2.3
			c1.3,0,2.3,1,2.3,2.3C17.3,16.3,16.3,17.3,15,17.3L15,17.3z M22.3,17.3c-1.3,0-2.3-1-2.3-2.3c0-1.3,1-2.3,2.3-2.3
			c1.3,0,2.3,1,2.3,2.3C24.5,16.3,23.5,17.3,22.3,17.3L22.3,17.3z M22.3,17.3"/>
	</g>
</g>
</svg>
